<?xml version="1.0" encoding="UTF-8" standalone="no"?>
<svg
   xmlns:dc="http://purl.org/dc/elements/1.1/"
   xmlns:cc="http://creativecommons.org/ns#"
   xmlns:rdf="http://www.w3.org/1999/02/22-rdf-syntax-ns#"
   xmlns:svg="http://www.w3.org/2000/svg"
   xmlns="http://www.w3.org/2000/svg"
   xmlns:sodipodi="http://sodipodi.sourceforge.net/DTD/sodipodi-0.dtd"
   xmlns:inkscape="http://www.inkscape.org/namespaces/inkscape"
   width="64"
   height="16"
   viewBox="0 0 64 16"
   fill="none"
   version="1.1"
   id="svg10"
   sodipodi:docname="pacman_down.svg"
   inkscape:version="1.0.1 (3bc2e813f5, 2020-09-07)">
  <metadata
     id="metadata16">
    <rdf:RDF>
      <cc:Work
         rdf:about="">
        <dc:format>image/svg+xml</dc:format>
        <dc:type
           rdf:resource="http://purl.org/dc/dcmitype/StillImage" />
      </cc:Work>
    </rdf:RDF>
  </metadata>
  <defs
     id="defs14" />
  <sodipodi:namedview
     pagecolor="#ffffff"
     bordercolor="#666666"
     borderopacity="1"
     objecttolerance="10"
     gridtolerance="10"
     guidetolerance="10"
     inkscape:pageopacity="0"
     inkscape:pageshadow="2"
     inkscape:window-width="1920"
     inkscape:window-height="1017"
     id="namedview12"
     showgrid="false"
     inkscape:zoom="16.28125"
     inkscape:cx="32"
     inkscape:cy="8"
     inkscape:window-x="-8"
     inkscape:window-y="-8"
     inkscape:window-maximized="1"
     inkscape:current-layer="svg10" />
  <path
     d="M5 2H3V3H2V5H1V10H2V12H3V13H5V14H10V13H12V12H13V10H14V5H13V3H12V2H10V1H5V2Z"
     fill="#FFFF00"
     id="path2"
     style="fill:#000000" />
  <path
     d="M26 1L21 1L21 2L19 2L19 3L18 3L18 5L17 5L17 10L18 10L18 12L19 12L19 13L21 13L21 11L22 11L22 8L23 8L23 5L24 5L24 8L25 8L25 11L26 11L26 13L28 13L28 12L29 12L29 10L30 10L30 5L29 5L29 3L28 3L28 2L26 2L26 1Z"
     fill="#FFFF00"
     id="path4"
     style="fill:#000000" />
  <path
     d="M42 1L37 1L37 2L35 2L35 3L34 3L34 5L33 5L33 10L35 10L35 9L36 9L36 8L37 8L37 7L38 7L38 6L39 6L39 5L40 5L40 6L41 6L41 7L42 7L42 8L43 8L43 9L44 9L44 10L46 10L46 5L45 5L45 3L44 3L44 2L42 2L42 1Z"
     fill="#FFFF00"
     id="path6"
     style="fill:#000000" />
  <path
     d="M58 1L53 1L53 2L51 2L51 3L50 3L50 5L49 5L49 10L50 10L50 12L51 12L51 13L53 13L53 11L54 11L54 8L55 8L55 5L56 5L56 8L57 8L57 11L58 11L58 13L60 13L60 12L61 12L61 10L62 10L62 5L61 5L61 3L60 3L60 2L58 2L58 1Z"
     fill="#FFFF00"
     id="path8"
     style="fill:#000000" />
</svg>
