<?xml version="1.0" encoding="UTF-8" standalone="no"?>
<svg
   xmlns:dc="http://purl.org/dc/elements/1.1/"
   xmlns:cc="http://creativecommons.org/ns#"
   xmlns:rdf="http://www.w3.org/1999/02/22-rdf-syntax-ns#"
   xmlns:svg="http://www.w3.org/2000/svg"
   xmlns="http://www.w3.org/2000/svg"
   xmlns:sodipodi="http://sodipodi.sourceforge.net/DTD/sodipodi-0.dtd"
   xmlns:inkscape="http://www.inkscape.org/namespaces/inkscape"
   width="64"
   height="16"
   viewBox="0 0 64 16"
   fill="none"
   version="1.1"
   id="svg10"
   sodipodi:docname="pacman_right.svg"
   inkscape:version="1.0.1 (3bc2e813f5, 2020-09-07)">
  <metadata
     id="metadata16">
    <rdf:RDF>
      <cc:Work
         rdf:about="">
        <dc:format>image/svg+xml</dc:format>
        <dc:type
           rdf:resource="http://purl.org/dc/dcmitype/StillImage" />
      </cc:Work>
    </rdf:RDF>
  </metadata>
  <defs
     id="defs14" />
  <sodipodi:namedview
     pagecolor="#ffffff"
     bordercolor="#666666"
     borderopacity="1"
     objecttolerance="10"
     gridtolerance="10"
     guidetolerance="10"
     inkscape:pageopacity="0"
     inkscape:pageshadow="2"
     inkscape:window-width="1920"
     inkscape:window-height="1017"
     id="namedview12"
     showgrid="false"
     inkscape:zoom="16.28125"
     inkscape:cx="32"
     inkscape:cy="8"
     inkscape:window-x="-8"
     inkscape:window-y="-8"
     inkscape:window-maximized="1"
     inkscape:current-layer="svg10" />
  <path
     d="M5 2H3V3H2V5H1V10H2V12H3V13H5V14H10V13H12V12H13V10H14V5H13V3H12V2H10V1H5V2Z"
     fill="#FFFF00"
     id="path2"
     style="fill:#000000" />
  <path
     d="M17 5V10H18V12H19V13H21V14H26V13H28V12H29V10H27V9H24V8H21V7H24V6H27V5H29V3H28V2H26V1H21V2H19V3H18V5H17Z"
     fill="#FFFF00"
     id="path4"
     style="fill:#000000" />
  <path
     d="M33 5V10H34V12H35V13H37V14H42V12H41V11H40V10H39V9H38V8H37V7H38V6H39V5H40V4H41V3H42V1H37V2H35V3H34V5H33Z"
     fill="#FFFF00"
     id="path6"
     style="fill:#000000" />
  <path
     d="M49 5V10H50V12H51V13H53V14H58V13H60V12H61V10H59V9H56V8H53V7H56V6H59V5H61V3H60V2H58V1H53V2H51V3H50V5H49Z"
     fill="#FFFF00"
     id="path8"
     style="fill:#000000" />
</svg>
