<?xml version="1.0" encoding="UTF-8" standalone="no"?>
<svg
   xmlns:dc="http://purl.org/dc/elements/1.1/"
   xmlns:cc="http://creativecommons.org/ns#"
   xmlns:rdf="http://www.w3.org/1999/02/22-rdf-syntax-ns#"
   xmlns:svg="http://www.w3.org/2000/svg"
   xmlns="http://www.w3.org/2000/svg"
   xmlns:sodipodi="http://sodipodi.sourceforge.net/DTD/sodipodi-0.dtd"
   xmlns:inkscape="http://www.inkscape.org/namespaces/inkscape"
   width="16"
   height="16"
   viewBox="0 0 16 16"
   fill="none"
   version="1.1"
   id="svg14"
   sodipodi:docname="bell.svg"
   inkscape:version="1.0.1 (3bc2e813f5, 2020-09-07)">
  <metadata
     id="metadata20">
    <rdf:RDF>
      <cc:Work
         rdf:about="">
        <dc:format>image/svg+xml</dc:format>
        <dc:type
           rdf:resource="http://purl.org/dc/dcmitype/StillImage" />
      </cc:Work>
    </rdf:RDF>
  </metadata>
  <defs
     id="defs18" />
  <sodipodi:namedview
     pagecolor="#ffffff"
     bordercolor="#666666"
     borderopacity="1"
     objecttolerance="10"
     gridtolerance="10"
     guidetolerance="10"
     inkscape:pageopacity="0"
     inkscape:pageshadow="2"
     inkscape:window-width="1920"
     inkscape:window-height="1017"
     id="namedview16"
     showgrid="false"
     inkscape:zoom="53.125"
     inkscape:cx="8"
     inkscape:cy="8"
     inkscape:window-x="-8"
     inkscape:window-y="-8"
     inkscape:window-maximized="1"
     inkscape:current-layer="svg14" />
  <path
     d="M2 10V14H3V13H13V14H14V10H13V7H12V4H11V3H9V2H7V3H5V4H4V7H3V10H2Z"
     fill="#FFFF00"
     id="path2"
     style="fill:#e6e6e6" />
  <path
     d="M4 10V12H5V10H4Z"
     fill="black"
     id="path4" />
  <path
     d="M5 9V6H6V5H7V6H6V9H5Z"
     fill="black"
     id="path6" />
  <path
     d="M7 3V4H9V3H7Z"
     fill="black"
     id="path8" />
  <path
     d="M3 13V15H13V13H3Z"
     fill="#47B8FF"
     id="path10"
     style="fill:#4d4d4d" />
  <path
     d="M8 13V15H10V13H8Z"
     fill="#E0DDFF"
     id="path12"
     style="fill:#b3b3b3" />
</svg>
