<?xml version="1.0" encoding="UTF-8" standalone="no"?>
<svg
   xmlns:dc="http://purl.org/dc/elements/1.1/"
   xmlns:cc="http://creativecommons.org/ns#"
   xmlns:rdf="http://www.w3.org/1999/02/22-rdf-syntax-ns#"
   xmlns:svg="http://www.w3.org/2000/svg"
   xmlns="http://www.w3.org/2000/svg"
   xmlns:sodipodi="http://sodipodi.sourceforge.net/DTD/sodipodi-0.dtd"
   xmlns:inkscape="http://www.inkscape.org/namespaces/inkscape"
   width="16"
   height="16"
   viewBox="0 0 16 16"
   fill="none"
   version="1.1"
   id="svg10"
   sodipodi:docname="galaxian.svg"
   inkscape:version="1.0.1 (3bc2e813f5, 2020-09-07)">
  <metadata
     id="metadata16">
    <rdf:RDF>
      <cc:Work
         rdf:about="">
        <dc:format>image/svg+xml</dc:format>
        <dc:type
           rdf:resource="http://purl.org/dc/dcmitype/StillImage" />
      </cc:Work>
    </rdf:RDF>
  </metadata>
  <defs
     id="defs14" />
  <sodipodi:namedview
     pagecolor="#ffffff"
     bordercolor="#666666"
     borderopacity="1"
     objecttolerance="10"
     gridtolerance="10"
     guidetolerance="10"
     inkscape:pageopacity="0"
     inkscape:pageshadow="2"
     inkscape:window-width="1920"
     inkscape:window-height="1017"
     id="namedview12"
     showgrid="false"
     inkscape:zoom="53.125"
     inkscape:cx="10.724166"
     inkscape:cy="8"
     inkscape:window-x="-8"
     inkscape:window-y="-8"
     inkscape:window-maximized="1"
     inkscape:current-layer="svg10" />
  <path
     d="M6 12V10H5V9H4V8H3V4H2V9H3V10H4V11H5V12H6Z"
     fill="#2121FF"
     id="path2"
     style="fill:#b3b3b3" />
  <path
     d="M9 12V10H10V9H11V8H12V4H13V9H12V10H11V11H10V12H9Z"
     fill="#2121FF"
     id="path4"
     style="fill:#b3b3b3" />
  <path
     d="M3 6V8H4V9H5V10H6V9H7V14H8V9H9V10H10V9H11V8H12V6H11V7H9V6H8V8H7V6H6V7H4V6H3Z"
     fill="#FFFF00"
     id="path6"
     style="fill:#808080" />
  <path
     d="M4 6V7H6V6H7V8H8V6H9V7H11V6H10V5H9V4H8V3H7V4H6V5H5V6H4Z"
     fill="#FF0000"
     id="path8"
     style="fill:#000000" />
</svg>
