<?xml version="1.0" encoding="UTF-8" standalone="no"?>
<svg
   xmlns:dc="http://purl.org/dc/elements/1.1/"
   xmlns:cc="http://creativecommons.org/ns#"
   xmlns:rdf="http://www.w3.org/1999/02/22-rdf-syntax-ns#"
   xmlns:svg="http://www.w3.org/2000/svg"
   xmlns="http://www.w3.org/2000/svg"
   xmlns:sodipodi="http://sodipodi.sourceforge.net/DTD/sodipodi-0.dtd"
   xmlns:inkscape="http://www.inkscape.org/namespaces/inkscape"
   width="16"
   height="16"
   viewBox="0 0 16 16"
   fill="none"
   version="1.1"
   id="svg24"
   sodipodi:docname="melon.svg"
   inkscape:version="1.0.1 (3bc2e813f5, 2020-09-07)">
  <metadata
     id="metadata30">
    <rdf:RDF>
      <cc:Work
         rdf:about="">
        <dc:format>image/svg+xml</dc:format>
        <dc:type
           rdf:resource="http://purl.org/dc/dcmitype/StillImage" />
      </cc:Work>
    </rdf:RDF>
  </metadata>
  <defs
     id="defs28" />
  <sodipodi:namedview
     pagecolor="#ffffff"
     bordercolor="#666666"
     borderopacity="1"
     objecttolerance="10"
     gridtolerance="10"
     guidetolerance="10"
     inkscape:pageopacity="0"
     inkscape:pageshadow="2"
     inkscape:window-width="1920"
     inkscape:window-height="1017"
     id="namedview26"
     showgrid="false"
     inkscape:zoom="53.125"
     inkscape:cx="8"
     inkscape:cy="8"
     inkscape:window-x="-8"
     inkscape:window-y="-8"
     inkscape:window-maximized="1"
     inkscape:current-layer="svg24" />
  <path
     d="M10 4H7V5H5V6H4V8H3V11H4V13H5V14H7V15H10V14H12V13H13V11H14V8H13V6H12V5H10V4Z"
     fill="#00FF01"
     id="path2"
     style="fill:#000000" />
  <path
     d="M5 2V1H6V2H11V3H9V6H8V7H7V8H6V9H5V10H6V11H9V10H7V9H9V7H11V6H12V7H11V8H12V9H13V10H11V8H10V9H9V10H10V11H11V12H12V13H11V14H10V15H9V14H10V13H11V12H8V13H7V14H6V13H7V12H6V11H4V8H6V7H5V6H8V3H6V2H5Z"
     fill="#47B8AE"
     id="path4"
     style="fill:#b3b3b3" />
  <path
     d="M8 5V4H9V5H8Z"
     fill="#E0DDFF"
     id="path6"
     style="fill:#ececec" />
  <path
     d="M11 10V9H12V10H11Z"
     fill="#E0DDFF"
     id="path8"
     style="fill:#ececec" />
  <path
     d="M9 8V7H10V8H9Z"
     fill="#E0DDFF"
     id="path10"
     style="fill:#ececec" />
  <path
     d="M9 12V11H10V12H9Z"
     fill="#E0DDFF"
     id="path12"
     style="fill:#ececec" />
  <path
     d="M7 10V9H8V10H7Z"
     fill="#E0DDFF"
     id="path14"
     style="fill:#ececec" />
  <path
     d="M7 12V11H8V12H7Z"
     fill="#E0DDFF"
     id="path16"
     style="fill:#ececec" />
  <path
     d="M4 11V10H5V11H4Z"
     fill="#E0DDFF"
     id="path18"
     style="fill:#ececec" />
  <path
     d="M4 9V8H5V9H4Z"
     fill="#E0DDFF"
     id="path20"
     style="fill:#ececec" />
  <path
     d="M6 7V6H7V7H6Z"
     fill="#E0DDFF"
     id="path22"
     style="fill:#ececec" />
</svg>
