<?xml version="1.0" encoding="UTF-8" standalone="no"?>
<svg
   xmlns:dc="http://purl.org/dc/elements/1.1/"
   xmlns:cc="http://creativecommons.org/ns#"
   xmlns:rdf="http://www.w3.org/1999/02/22-rdf-syntax-ns#"
   xmlns:svg="http://www.w3.org/2000/svg"
   xmlns="http://www.w3.org/2000/svg"
   xmlns:sodipodi="http://sodipodi.sourceforge.net/DTD/sodipodi-0.dtd"
   xmlns:inkscape="http://www.inkscape.org/namespaces/inkscape"
   width="16"
   height="16"
   viewBox="0 0 16 16"
   fill="none"
   version="1.1"
   id="svg28"
   sodipodi:docname="strawberry.svg"
   inkscape:version="1.0.1 (3bc2e813f5, 2020-09-07)">
  <metadata
     id="metadata34">
    <rdf:RDF>
      <cc:Work
         rdf:about="">
        <dc:format>image/svg+xml</dc:format>
        <dc:type
           rdf:resource="http://purl.org/dc/dcmitype/StillImage" />
      </cc:Work>
    </rdf:RDF>
  </metadata>
  <defs
     id="defs32" />
  <sodipodi:namedview
     pagecolor="#ffffff"
     bordercolor="#666666"
     borderopacity="1"
     objecttolerance="10"
     gridtolerance="10"
     guidetolerance="10"
     inkscape:pageopacity="0"
     inkscape:pageshadow="2"
     inkscape:window-width="1920"
     inkscape:window-height="1017"
     id="namedview30"
     showgrid="false"
     inkscape:zoom="53.125"
     inkscape:cx="8"
     inkscape:cy="8"
     inkscape:window-x="-8"
     inkscape:window-y="-8"
     inkscape:window-maximized="1"
     inkscape:current-layer="svg28" />
  <path
     d="M5 4H3V5H2V9H3V11H4V12H5V13H7V14H8V13H10V11H12V9H13V5H12V4H10V5H8V6H7V5H5V4Z"
     fill="#FF0000"
     id="path2"
     style="fill:#000000" />
  <path
     d="M4 6H3V7H4V6Z"
     fill="#E0DDFF"
     id="path4"
     style="fill:#b3b3b3" />
  <path
     d="M12 5H11V6H12V5Z"
     fill="#E0DDFF"
     id="path6"
     style="fill:#b3b3b3" />
  <path
     d="M7 3H4V4H5V5H7V6H8V5H10V4H11V3H8V4H7V3Z"
     fill="#00FF00"
     id="path8"
     style="fill:#808080" />
  <path
     d="M8 2H7V4H8V2Z"
     fill="#E0DDFF"
     id="path10"
     style="fill:#b3b3b3" />
  <path
     d="M10 6H9V7H10V6Z"
     fill="#E0DDFF"
     id="path12"
     style="fill:#b3b3b3" />
  <path
     d="M11 8H10V9H11V8Z"
     fill="#E0DDFF"
     id="path14"
     style="fill:#b3b3b3" />
  <path
     d="M10 11H9V12H10V11Z"
     fill="#E0DDFF"
     id="path16"
     style="fill:#b3b3b3" />
  <path
     d="M8 7H7V8H8V7Z"
     fill="#E0DDFF"
     id="path18"
     style="fill:#b3b3b3" />
  <path
     d="M8 9H7V10H8V9Z"
     fill="#E0DDFF"
     id="path20"
     style="fill:#b3b3b3" />
  <path
     d="M7 11H6V12H7V11Z"
     fill="#E0DDFF"
     id="path22"
     style="fill:#b3b3b3" />
  <path
     d="M5 9H4V10H5V9Z"
     fill="#E0DDFF"
     id="path24"
     style="fill:#b3b3b3" />
  <path
     d="M6 7H5V8H6V7Z"
     fill="#E0DDFF"
     id="path26"
     style="fill:#b3b3b3" />
</svg>
