<?xml version="1.0" encoding="UTF-8" standalone="no"?>
<svg
   xmlns:dc="http://purl.org/dc/elements/1.1/"
   xmlns:cc="http://creativecommons.org/ns#"
   xmlns:rdf="http://www.w3.org/1999/02/22-rdf-syntax-ns#"
   xmlns:svg="http://www.w3.org/2000/svg"
   xmlns="http://www.w3.org/2000/svg"
   xmlns:sodipodi="http://sodipodi.sourceforge.net/DTD/sodipodi-0.dtd"
   xmlns:inkscape="http://www.inkscape.org/namespaces/inkscape"
   width="24"
   height="16"
   viewBox="0 0 24 16"
   fill="none"
   version="1.1"
   id="svg10"
   sodipodi:docname="1000.svg"
   inkscape:version="1.0.1 (3bc2e813f5, 2020-09-07)">
  <metadata
     id="metadata16">
    <rdf:RDF>
      <cc:Work
         rdf:about="">
        <dc:format>image/svg+xml</dc:format>
        <dc:type
           rdf:resource="http://purl.org/dc/dcmitype/StillImage" />
      </cc:Work>
    </rdf:RDF>
  </metadata>
  <defs
     id="defs14" />
  <sodipodi:namedview
     pagecolor="#ffffff"
     bordercolor="#666666"
     borderopacity="1"
     objecttolerance="10"
     gridtolerance="10"
     guidetolerance="10"
     inkscape:pageopacity="0"
     inkscape:pageshadow="2"
     inkscape:window-width="693"
     inkscape:window-height="480"
     id="namedview12"
     showgrid="false"
     inkscape:zoom="43.416667"
     inkscape:cx="12"
     inkscape:cy="8"
     inkscape:window-x="0"
     inkscape:window-y="0"
     inkscape:window-maximized="0"
     inkscape:current-layer="svg10" />
  <path
     d="M4 5H3V6H4V10H3V11H6V10H5V4H4V5Z"
     fill="#FCB5FF"
     id="path2"
     style="fill:#000000" />
  <path
     fill-rule="evenodd"
     clip-rule="evenodd"
     d="M7 10V5H8V10H7ZM10 10H8V11H10V10ZM10 5H8V4H10V5ZM10 5V10H11V5H10Z"
     fill="#FCB5FF"
     id="path4"
     style="fill:#000000" />
  <path
     fill-rule="evenodd"
     clip-rule="evenodd"
     d="M12 10V5H13V10H12ZM15 10H13V11H15V10ZM15 5H13V4H15V5ZM15 5V10H16V5H15Z"
     fill="#FCB5FF"
     id="path6"
     style="fill:#000000" />
  <path
     fill-rule="evenodd"
     clip-rule="evenodd"
     d="M17 10V5H18V10H17ZM20 10H18V11H20V10ZM20 5H18V4H20V5ZM20 5V10H21V5H20Z"
     fill="#FCB5FF"
     id="path8"
     style="fill:#000000" />
</svg>
