<?xml version="1.0" encoding="UTF-8" standalone="no"?>
<svg
   xmlns:dc="http://purl.org/dc/elements/1.1/"
   xmlns:cc="http://creativecommons.org/ns#"
   xmlns:rdf="http://www.w3.org/1999/02/22-rdf-syntax-ns#"
   xmlns:svg="http://www.w3.org/2000/svg"
   xmlns="http://www.w3.org/2000/svg"
   xmlns:sodipodi="http://sodipodi.sourceforge.net/DTD/sodipodi-0.dtd"
   xmlns:inkscape="http://www.inkscape.org/namespaces/inkscape"
   width="24"
   height="16"
   viewBox="0 0 24 16"
   fill="none"
   version="1.1"
   id="svg10"
   sodipodi:docname="3000.svg"
   inkscape:version="1.0.1 (3bc2e813f5, 2020-09-07)">
  <metadata
     id="metadata16">
    <rdf:RDF>
      <cc:Work
         rdf:about="">
        <dc:format>image/svg+xml</dc:format>
        <dc:type
           rdf:resource="http://purl.org/dc/dcmitype/StillImage" />
      </cc:Work>
    </rdf:RDF>
  </metadata>
  <defs
     id="defs14" />
  <sodipodi:namedview
     pagecolor="#ffffff"
     bordercolor="#666666"
     borderopacity="1"
     objecttolerance="10"
     gridtolerance="10"
     guidetolerance="10"
     inkscape:pageopacity="0"
     inkscape:pageshadow="2"
     inkscape:window-width="693"
     inkscape:window-height="480"
     id="namedview12"
     showgrid="false"
     inkscape:zoom="43.416667"
     inkscape:cx="12"
     inkscape:cy="8"
     inkscape:window-x="0"
     inkscape:window-y="0"
     inkscape:window-maximized="0"
     inkscape:current-layer="svg10" />
  <path
     d="M2 4H7V5H6V6H5V7H6V8H7V10H6V11H3V10H2V9H3V10H6V8H5V7H4V6H5V5H2V4Z"
     fill="#FCB5FF"
     id="path2"
     style="fill:#000000" />
  <path
     fill-rule="evenodd"
     clip-rule="evenodd"
     d="M8 10V5H9V10H8ZM11 10H9V11H11V10ZM11 5H9V4H11V5ZM11 5V10H12V5H11Z"
     fill="#FCB5FF"
     id="path4"
     style="fill:#000000" />
  <path
     fill-rule="evenodd"
     clip-rule="evenodd"
     d="M13 10V5H14V10H13ZM16 10H14V11H16V10ZM16 5H14V4H16V5ZM16 5V10H17V5H16Z"
     fill="#FCB5FF"
     id="path6"
     style="fill:#000000" />
  <path
     fill-rule="evenodd"
     clip-rule="evenodd"
     d="M18 10V5H19V10H18ZM21 10H19V11H21V10ZM21 5H19V4H21V5ZM21 5V10H22V5H21Z"
     fill="#FCB5FF"
     id="path8"
     style="fill:#000000" />
</svg>
