<?xml version="1.0" encoding="UTF-8" standalone="no"?>
<svg
   xmlns:dc="http://purl.org/dc/elements/1.1/"
   xmlns:cc="http://creativecommons.org/ns#"
   xmlns:rdf="http://www.w3.org/1999/02/22-rdf-syntax-ns#"
   xmlns:svg="http://www.w3.org/2000/svg"
   xmlns="http://www.w3.org/2000/svg"
   xmlns:sodipodi="http://sodipodi.sourceforge.net/DTD/sodipodi-0.dtd"
   xmlns:inkscape="http://www.inkscape.org/namespaces/inkscape"
   width="23"
   height="16"
   viewBox="0 0 23 16"
   fill="none"
   version="1.1"
   id="svg17"
   sodipodi:docname="5000.svg"
   inkscape:version="1.0.1 (3bc2e813f5, 2020-09-07)">
  <metadata
     id="metadata21">
    <rdf:RDF>
      <cc:Work
         rdf:about="">
        <dc:format>image/svg+xml</dc:format>
        <dc:type
           rdf:resource="http://purl.org/dc/dcmitype/StillImage" />
      </cc:Work>
    </rdf:RDF>
  </metadata>
  <sodipodi:namedview
     pagecolor="#ffffff"
     bordercolor="#666666"
     borderopacity="1"
     objecttolerance="10"
     gridtolerance="10"
     guidetolerance="10"
     inkscape:pageopacity="0"
     inkscape:pageshadow="2"
     inkscape:window-width="708"
     inkscape:window-height="480"
     id="namedview19"
     showgrid="false"
     inkscape:zoom="45.304348"
     inkscape:cx="11.5"
     inkscape:cy="8"
     inkscape:window-x="0"
     inkscape:window-y="0"
     inkscape:window-maximized="0"
     inkscape:current-layer="svg17" />
  <g
     clip-path="url(#clip0)"
     id="g10"
     style="fill:#000000">
    <path
       d="M1 4H6V5H2V6H5V7H6V10H5V11H2V10H1V9H2V10H5V7H1V4Z"
       fill="#FCB5FF"
       id="path2"
       style="fill:#000000" />
    <path
       fill-rule="evenodd"
       clip-rule="evenodd"
       d="M7 10V5H8V10H7ZM10 10H8V11H10V10ZM10 5H8V4H10V5ZM10 5V10H11V5H10Z"
       fill="#FCB5FF"
       id="path4"
       style="fill:#000000" />
    <path
       fill-rule="evenodd"
       clip-rule="evenodd"
       d="M12 10V5H13V10H12ZM15 10H13V11H15V10ZM15 5H13V4H15V5ZM15 5V10H16V5H15Z"
       fill="#FCB5FF"
       id="path6"
       style="fill:#000000" />
    <path
       fill-rule="evenodd"
       clip-rule="evenodd"
       d="M17 10V5H18V10H17ZM20 10H18V11H20V10ZM20 5H18V4H20V5ZM20 5V10H21V5H20Z"
       fill="#FCB5FF"
       id="path8"
       style="fill:#000000" />
  </g>
  <defs
     id="defs15">
    <clipPath
       id="clip0">
      <rect
         width="23"
         height="16"
         fill="white"
         id="rect12" />
    </clipPath>
  </defs>
</svg>
