<?xml version="1.0" encoding="UTF-8" standalone="no"?>
<svg
   xmlns:dc="http://purl.org/dc/elements/1.1/"
   xmlns:cc="http://creativecommons.org/ns#"
   xmlns:rdf="http://www.w3.org/1999/02/22-rdf-syntax-ns#"
   xmlns:svg="http://www.w3.org/2000/svg"
   xmlns="http://www.w3.org/2000/svg"
   xmlns:sodipodi="http://sodipodi.sourceforge.net/DTD/sodipodi-0.dtd"
   xmlns:inkscape="http://www.inkscape.org/namespaces/inkscape"
   width="80"
   height="16"
   viewBox="0 0 80 16"
   fill="none"
   version="1.1"
   id="svg18"
   sodipodi:docname="game_over.svg"
   inkscape:version="1.0.1 (3bc2e813f5, 2020-09-07)">
  <metadata
     id="metadata24">
    <rdf:RDF>
      <cc:Work
         rdf:about="">
        <dc:format>image/svg+xml</dc:format>
        <dc:type
           rdf:resource="http://purl.org/dc/dcmitype/StillImage" />
      </cc:Work>
    </rdf:RDF>
  </metadata>
  <defs
     id="defs22" />
  <sodipodi:namedview
     pagecolor="#ffffff"
     bordercolor="#666666"
     borderopacity="1"
     objecttolerance="10"
     gridtolerance="10"
     guidetolerance="10"
     inkscape:pageopacity="0"
     inkscape:pageshadow="2"
     inkscape:window-width="693"
     inkscape:window-height="480"
     id="namedview20"
     showgrid="false"
     inkscape:zoom="13.025"
     inkscape:cx="40"
     inkscape:cy="8"
     inkscape:window-x="0"
     inkscape:window-y="0"
     inkscape:window-maximized="0"
     inkscape:current-layer="svg18" />
  <path
     d="M3 4H8V5H4V6H3V9H4V10H6V8H5V7H8V11H3V10H2V9H1V6H2V5H3V4Z"
     fill="#FF0000"
     id="path2"
     style="fill:#000000" />
  <path
     fill-rule="evenodd"
     clip-rule="evenodd"
     d="M9 11V6H10V5H11V4H14V5H15V6H16V11H14V9H11V11H9ZM11 8V6H12V5H13V6H14V8H11Z"
     fill="#FF0000"
     id="path4"
     style="fill:#000000" />
  <path
     d="M17 4V11H19V8H20V9H21V8H22V11H24V4H22V5H21V6H20V5H19V4H17Z"
     fill="#FF0000"
     id="path6"
     style="fill:#000000" />
  <path
     d="M26 4V11H32V10H28V8H31V7H28V5H32V4H26Z"
     fill="#FF0000"
     id="path8"
     style="fill:#000000" />
  <path
     fill-rule="evenodd"
     clip-rule="evenodd"
     d="M48 10V5H49V4H54V5H55V10H54V11H49V10H48ZM50 10V5H53V10H50Z"
     fill="#FF0000"
     id="path10"
     style="fill:#000000" />
  <path
     d="M58 4H56V8H57V9H58V10H59V11H60V10H61V9H62V8H63V4H61V7H60V8H59V7H58V4Z"
     fill="#FF0000"
     id="path12"
     style="fill:#000000" />
  <path
     d="M65 4V11H71V10H67V8H70V7H67V5H71V4H65Z"
     fill="#FF0000"
     id="path14"
     style="fill:#000000" />
  <path
     fill-rule="evenodd"
     clip-rule="evenodd"
     d="M72 11V4H78V5H79V8H77V9H78V10H79V11H76V10H75V9H74V11H72ZM74 8V5H77V7H76V8H74Z"
     fill="#FF0000"
     id="path16"
     style="fill:#000000" />
</svg>
