<?xml version="1.0" encoding="UTF-8" standalone="no"?>
<svg
   xmlns:dc="http://purl.org/dc/elements/1.1/"
   xmlns:cc="http://creativecommons.org/ns#"
   xmlns:rdf="http://www.w3.org/1999/02/22-rdf-syntax-ns#"
   xmlns:svg="http://www.w3.org/2000/svg"
   xmlns="http://www.w3.org/2000/svg"
   xmlns:sodipodi="http://sodipodi.sourceforge.net/DTD/sodipodi-0.dtd"
   xmlns:inkscape="http://www.inkscape.org/namespaces/inkscape"
   width="48"
   height="16"
   viewBox="0 0 48 16"
   fill="none"
   version="1.1"
   id="svg16"
   sodipodi:docname="ready.svg"
   inkscape:version="1.0.1 (3bc2e813f5, 2020-09-07)">
  <metadata
     id="metadata22">
    <rdf:RDF>
      <cc:Work
         rdf:about="">
        <dc:format>image/svg+xml</dc:format>
        <dc:type
           rdf:resource="http://purl.org/dc/dcmitype/StillImage" />
      </cc:Work>
    </rdf:RDF>
  </metadata>
  <defs
     id="defs20" />
  <sodipodi:namedview
     pagecolor="#ffffff"
     bordercolor="#666666"
     borderopacity="1"
     objecttolerance="10"
     gridtolerance="10"
     guidetolerance="10"
     inkscape:pageopacity="0"
     inkscape:pageshadow="2"
     inkscape:window-width="1920"
     inkscape:window-height="1017"
     id="namedview18"
     showgrid="false"
     inkscape:zoom="21.708333"
     inkscape:cx="24"
     inkscape:cy="8"
     inkscape:window-x="-8"
     inkscape:window-y="-8"
     inkscape:window-maximized="1"
     inkscape:current-layer="svg16" />
  <path
     d="M42 10V11H43V10H42Z"
     fill="#FFFF00"
     id="path2"
     style="fill:#000000" />
  <path
     fill-rule="evenodd"
     clip-rule="evenodd"
     d="M1 11V4H7V5H8V8H6V9H7V10H8V11H5V10H4V9H3V11H1ZM3 8V5H6V7H5V8H3Z"
     fill="#FFFF00"
     id="path4"
     style="fill:#000000" />
  <path
     d="M10 11H16V10H12V8H15V7H12V5H16V4H10V11Z"
     fill="#FFFF00"
     id="path6"
     style="fill:#000000" />
  <path
     fill-rule="evenodd"
     clip-rule="evenodd"
     d="M17 11V6H18V5H19V4H22V5H23V6H24V11H22V9H19V11H17ZM19 8V6H20V5H21V6H22V8H19Z"
     fill="#FFFF00"
     id="path8"
     style="fill:#000000" />
  <path
     fill-rule="evenodd"
     clip-rule="evenodd"
     d="M25 11V4H30V5H31V6H32V9H31V10H30V11H25ZM27 10V5H29V6H30V9H29V10H27Z"
     fill="#FFFF00"
     id="path10"
     style="fill:#000000" />
  <path
     d="M36 8V11H38V8H39V7H40V4H38V7H36V4H34V7H35V8H36Z"
     fill="#FFFF00"
     id="path12"
     style="fill:#000000" />
  <path
     d="M43 6V9H44V8H45V7H46V6H47V4H44V6H43Z"
     fill="#FFFF00"
     id="path14"
     style="fill:#000000" />
</svg>
