<?xml version="1.0" encoding="UTF-8" standalone="no"?>
<svg
   xmlns:dc="http://purl.org/dc/elements/1.1/"
   xmlns:cc="http://creativecommons.org/ns#"
   xmlns:rdf="http://www.w3.org/1999/02/22-rdf-syntax-ns#"
   xmlns:svg="http://www.w3.org/2000/svg"
   xmlns="http://www.w3.org/2000/svg"
   xmlns:sodipodi="http://sodipodi.sourceforge.net/DTD/sodipodi-0.dtd"
   xmlns:inkscape="http://www.inkscape.org/namespaces/inkscape"
   width="32"
   height="16"
   viewBox="0 0 32 16"
   fill="none"
   version="1.1"
   id="svg30"
   sodipodi:docname="blinky_up_angry.svg"
   inkscape:version="1.0.1 (3bc2e813f5, 2020-09-07)">
  <metadata
     id="metadata36">
    <rdf:RDF>
      <cc:Work
         rdf:about="">
        <dc:format>image/svg+xml</dc:format>
        <dc:type
           rdf:resource="http://purl.org/dc/dcmitype/StillImage" />
      </cc:Work>
    </rdf:RDF>
  </metadata>
  <defs
     id="defs34" />
  <sodipodi:namedview
     pagecolor="#ffffff"
     bordercolor="#666666"
     borderopacity="1"
     objecttolerance="10"
     gridtolerance="10"
     guidetolerance="10"
     inkscape:pageopacity="0"
     inkscape:pageshadow="2"
     inkscape:window-width="1920"
     inkscape:window-height="1017"
     id="namedview32"
     showgrid="false"
     inkscape:zoom="32.5625"
     inkscape:cx="16"
     inkscape:cy="8"
     inkscape:window-x="-8"
     inkscape:window-y="-8"
     inkscape:window-maximized="1"
     inkscape:current-layer="svg30" />
  <path
     d="M3 3V4H2V7H1V15H2V14H3V13H4V14H5V15H7V13H9V15H11V14H12V13H13V14H14V15H15V7H14V4H13V3H12V2H10V1H6V2H5H4V3H3Z"
     fill="#FF0000"
     id="path2"
     style="fill:#000000" />
  <path
     d="M4 6V7H6V6H7V3H6V2H4V3H3V6H4Z"
     fill="#E0DDFF"
     id="path4"
     style="fill:#cccccc" />
  <path
     d="M4 4V2H6V4H4Z"
     fill="#2121FF"
     id="path6"
     style="fill:#666666" />
  <path
     d="M10 6V7H12V6H13V3H12V2H10V3H9V6H10Z"
     fill="#E0DDFF"
     id="path8"
     style="fill:#cccccc" />
  <path
     d="M10 4V2H12V4H10Z"
     fill="#2121FF"
     id="path10"
     style="fill:#666666" />
  <path
     d="M19 3V4H18V7H17V14H18V15H20V14H21V13H22V14H23V15H25V14H26V13H27V14H28V15H30V14H31V7H30V4H29V3H28V2H26V1H22V2H21H20V3H19Z"
     fill="#FF0000"
     id="path12"
     style="fill:#000000" />
  <path
     d="M20 6V7H22V6H23V3H22V2H20V3H19V6H20Z"
     fill="#E0DDFF"
     id="path14"
     style="fill:#cccccc" />
  <path
     d="M20 4V2H22V4H20Z"
     fill="#2121FF"
     id="path16"
     style="fill:#666666" />
  <path
     d="M26 6V7H28V6H29V3H28V2H26V3H25V6H26Z"
     fill="#E0DDFF"
     id="path18"
     style="fill:#cccccc" />
  <path
     d="M26 4V2H28V4H26Z"
     fill="#2121FF"
     id="path20"
     style="fill:#666666" />
  <path
     d="M7 3H6V2H5V1H4V0H5V1H6V2H7V3Z"
     fill="black"
     id="path22"
     style="fill:#4d4d4d" />
  <path
     d="M9 3H10V2H11V1H12V0H11V1H10V2H9V3Z"
     fill="black"
     id="path24"
     style="fill:#4d4d4d" />
  <path
     d="M23 3H22V2H21V1H20V0H21V1H22V2H23V3Z"
     fill="black"
     id="path26"
     style="fill:#4d4d4d" />
  <path
     d="M25 3H26V2H27V1H28V0H27V1H26V2H25V3Z"
     fill="black"
     id="path28"
     style="fill:#4d4d4d" />
</svg>
