<?xml version="1.0" encoding="UTF-8" standalone="no"?>
<svg
   xmlns:dc="http://purl.org/dc/elements/1.1/"
   xmlns:cc="http://creativecommons.org/ns#"
   xmlns:rdf="http://www.w3.org/1999/02/22-rdf-syntax-ns#"
   xmlns:svg="http://www.w3.org/2000/svg"
   xmlns="http://www.w3.org/2000/svg"
   xmlns:sodipodi="http://sodipodi.sourceforge.net/DTD/sodipodi-0.dtd"
   xmlns:inkscape="http://www.inkscape.org/namespaces/inkscape"
   width="32"
   height="16"
   viewBox="0 0 32 16"
   fill="none"
   version="1.1"
   id="svg18"
   sodipodi:docname="eyes_right.svg"
   inkscape:version="1.0.1 (3bc2e813f5, 2020-09-07)">
  <metadata
     id="metadata24">
    <rdf:RDF>
      <cc:Work
         rdf:about="">
        <dc:format>image/svg+xml</dc:format>
        <dc:type
           rdf:resource="http://purl.org/dc/dcmitype/StillImage" />
      </cc:Work>
    </rdf:RDF>
  </metadata>
  <defs
     id="defs22" />
  <sodipodi:namedview
     pagecolor="#ffffff"
     bordercolor="#666666"
     borderopacity="1"
     objecttolerance="10"
     gridtolerance="10"
     guidetolerance="10"
     inkscape:pageopacity="0"
     inkscape:pageshadow="2"
     inkscape:window-width="1920"
     inkscape:window-height="1017"
     id="namedview20"
     showgrid="false"
     inkscape:zoom="32.5625"
     inkscape:cx="16"
     inkscape:cy="8"
     inkscape:window-x="-8"
     inkscape:window-y="-8"
     inkscape:window-maximized="1"
     inkscape:current-layer="svg18" />
  <path
     d="M5 8V9H7V8H8V5H7V4H5V5H4V8H5Z"
     fill="#E0DDFF"
     id="path2"
     style="fill:#999999" />
  <path
     d="M6 8V6H8V8H6Z"
     fill="#2121FF"
     id="path4"
     style="fill:#000000" />
  <path
     d="M11 8V9H13V8H14V5H13V4H11V5H10V8H11Z"
     fill="#E0DDFF"
     id="path6"
     style="fill:#999999" />
  <path
     d="M12 8V6H14V8H12Z"
     fill="#2121FF"
     id="path8"
     style="fill:#000000" />
  <path
     d="M21 8V9H23V8H24V5H23V4H21V5H20V8H21Z"
     fill="#E0DDFF"
     id="path10"
     style="fill:#999999" />
  <path
     d="M22 8V6H24V8H22Z"
     fill="#2121FF"
     id="path12"
     style="fill:#000000" />
  <path
     d="M27 8V9H29V8H30V5H29V4H27V5H26V8H27Z"
     fill="#E0DDFF"
     id="path14"
     style="fill:#999999" />
  <path
     d="M28 8V6H30V8H28Z"
     fill="#2121FF"
     id="path16"
     style="fill:#000000" />
</svg>
