<?xml version="1.0" encoding="UTF-8" standalone="no"?>
<svg
   xmlns:dc="http://purl.org/dc/elements/1.1/"
   xmlns:cc="http://creativecommons.org/ns#"
   xmlns:rdf="http://www.w3.org/1999/02/22-rdf-syntax-ns#"
   xmlns:svg="http://www.w3.org/2000/svg"
   xmlns="http://www.w3.org/2000/svg"
   xmlns:sodipodi="http://sodipodi.sourceforge.net/DTD/sodipodi-0.dtd"
   xmlns:inkscape="http://www.inkscape.org/namespaces/inkscape"
   width="32"
   height="16"
   viewBox="0 0 32 16"
   fill="none"
   version="1.1"
   id="svg18"
   sodipodi:docname="eyes_left.svg"
   inkscape:version="1.0.1 (3bc2e813f5, 2020-09-07)">
  <metadata
     id="metadata24">
    <rdf:RDF>
      <cc:Work
         rdf:about="">
        <dc:format>image/svg+xml</dc:format>
        <dc:type
           rdf:resource="http://purl.org/dc/dcmitype/StillImage" />
      </cc:Work>
    </rdf:RDF>
  </metadata>
  <defs
     id="defs22" />
  <sodipodi:namedview
     pagecolor="#ffffff"
     bordercolor="#666666"
     borderopacity="1"
     objecttolerance="10"
     gridtolerance="10"
     guidetolerance="10"
     inkscape:pageopacity="0"
     inkscape:pageshadow="2"
     inkscape:window-width="1920"
     inkscape:window-height="1017"
     id="namedview20"
     showgrid="false"
     inkscape:zoom="32.5625"
     inkscape:cx="16"
     inkscape:cy="8"
     inkscape:window-x="-8"
     inkscape:window-y="-8"
     inkscape:window-maximized="1"
     inkscape:current-layer="svg18" />
  <path
     d="M8 5V6H10V8H9V9H11V8H12V5H11V4H9V5H8Z"
     fill="#E0DDFF"
     id="path2"
     style="fill:#999999" />
  <path
     d="M8 6V8H10V6H8Z"
     fill="#2121FF"
     id="path4"
     style="fill:#000000" />
  <path
     d="M2 5V6H4V8H3V9H5V8H6V5H5V4H3V5H2Z"
     fill="#E0DDFF"
     id="path6"
     style="fill:#999999" />
  <path
     d="M2 6V8H4V6H2Z"
     fill="#2121FF"
     id="path8"
     style="fill:#000000" />
  <path
     d="M24 5V6H26V8H25V9H27V8H28V5H27V4H25V5H24Z"
     fill="#E0DDFF"
     id="path10"
     style="fill:#999999" />
  <path
     d="M24 6V8H26V6H24Z"
     fill="#2121FF"
     id="path12"
     style="fill:#000000" />
  <path
     d="M18 5V6H20V8H19V9H21V8H22V5H21V4H19V5H18Z"
     fill="#E0DDFF"
     id="path14"
     style="fill:#999999" />
  <path
     d="M18 6V8H20V6H18Z"
     fill="#2121FF"
     id="path16"
     style="fill:#000000" />
</svg>
