<?xml version="1.0" encoding="UTF-8" standalone="no"?>
<svg
   xmlns:dc="http://purl.org/dc/elements/1.1/"
   xmlns:cc="http://creativecommons.org/ns#"
   xmlns:rdf="http://www.w3.org/1999/02/22-rdf-syntax-ns#"
   xmlns:svg="http://www.w3.org/2000/svg"
   xmlns="http://www.w3.org/2000/svg"
   xmlns:sodipodi="http://sodipodi.sourceforge.net/DTD/sodipodi-0.dtd"
   xmlns:inkscape="http://www.inkscape.org/namespaces/inkscape"
   width="32"
   height="16"
   viewBox="0 0 32 16"
   fill="none"
   version="1.1"
   id="svg22"
   sodipodi:docname="clyde_down.svg"
   inkscape:version="1.0.1 (3bc2e813f5, 2020-09-07)">
  <metadata
     id="metadata28">
    <rdf:RDF>
      <cc:Work
         rdf:about="">
        <dc:format>image/svg+xml</dc:format>
        <dc:type
           rdf:resource="http://purl.org/dc/dcmitype/StillImage" />
      </cc:Work>
    </rdf:RDF>
  </metadata>
  <defs
     id="defs26" />
  <sodipodi:namedview
     pagecolor="#ffffff"
     bordercolor="#666666"
     borderopacity="1"
     objecttolerance="10"
     gridtolerance="10"
     guidetolerance="10"
     inkscape:pageopacity="0"
     inkscape:pageshadow="2"
     inkscape:window-width="1920"
     inkscape:window-height="1017"
     id="namedview24"
     showgrid="false"
     inkscape:zoom="32.5625"
     inkscape:cx="16"
     inkscape:cy="8"
     inkscape:window-x="-8"
     inkscape:window-y="-8"
     inkscape:window-maximized="1"
     inkscape:current-layer="svg22" />
  <path
     d="M3 3V4H2V7H1V15H2V14H3V13H4V14H5V15H7V13H9V15H11V14H12V13H13V14H14V15H15V7H14V4H13V3H12V2H10V1H6V2H5H4V3H3Z"
     fill="#F8BB55"
     id="path2"
     style="fill:#000000" />
  <path
     d="M4 9V10H6V9H7V6H6V5H4V6H3V9H4Z"
     fill="#E0DDFF"
     id="path4"
     style="fill:#e6e6e6" />
  <path
     d="M4 10V8H6V10H4Z"
     fill="#2121FF"
     id="path6"
     style="fill:#666666" />
  <path
     d="M10 9V10H12V9H13V6H12V5H10V6H9V9H10Z"
     fill="#E0DDFF"
     id="path8"
     style="fill:#e6e6e6" />
  <path
     d="M10 10V8H12V10H10Z"
     fill="#2121FF"
     id="path10"
     style="fill:#666666" />
  <path
     d="M19 3V4H18V7H17V14H18V15H20V14H21V13H22V14H23V15H25V14H26V13H27V14H28V15H30V14H31V7H30V4H29V3H28V2H26V1H22V2H21H20V3H19Z"
     fill="#F8BB55"
     id="path12"
     style="fill:#000000" />
  <path
     d="M20 9V10H22V9H23V6H22V5H20V6H19V9H20Z"
     fill="#E0DDFF"
     id="path14"
     style="fill:#e6e6e6" />
  <path
     d="M20 10V8H22V10H20Z"
     fill="#2121FF"
     id="path16"
     style="fill:#666666" />
  <path
     d="M26 9V10H28V9H29V6H28V5H26V6H25V9H26Z"
     fill="#E0DDFF"
     id="path18"
     style="fill:#e6e6e6" />
  <path
     d="M26 10V8H28V10H26Z"
     fill="#2121FF"
     id="path20"
     style="fill:#666666" />
</svg>
