<svg width="744" height="830" xmlns="http://www.w3.org/2000/svg">
 <!-- Created with Method Draw - http://github.com/duopixel/Method-Draw/ -->

 <g>
  <title>background</title>
  <rect fill="#fff" id="canvas_background" height="832" width="746" y="-1" x="-1"/>
 </g>
 <g>
  <title>Layer 1</title>
  <!-- Created with Method Draw - http://github.com/duopixel/Method-Draw/ -->
  <g id="svg_61">
   <g transform="matrix(1.35589, 0, 0, 1.3893, -6.53698, -1.31471)" id="svg_58">
    <title>background</title>
    <rect x="-128.82581" y="2.34823" width="802" height="602" id="svg_56" fill="#fff"/>
    <g id="svg_55" display="none">
     <rect id="svg_59" width="672" height="504" x="-127.82581" y="3.34823" stroke-width="0" fill="url(#gridpattern)"/>
    </g>
   </g>
   <g transform="matrix(1.35589, 0, 0, 1.3893, -6.53698, -1.31471)" id="svg_60">
    <title>Layer 1</title>
    <g id="svg_30">
     <rect width="224" height="248" fill="white" id="svg_54" transform="matrix(2.44866, 0, 0, 2.40494, -480.265, -7.76113)" y="6.30322" x="201.38263"/>
     <path fill-rule="evenodd" clip-rule="evenodd" d="m259.18079,243.0759l-48.97327,0l0,76.95824l137.12514,0l0,-76.95824l-48.97327,0l0,9.61978l39.17861,0l0,57.71868l-117.53584,0l0,-57.71868l39.17861,0l0,-9.61978l0.00002,0zm-2.44866,2.40494l-44.07594,0l0,72.14835l132.22782,0l0,-72.14835l-44.07594,0l0,4.80989l39.17861,0l0,62.52857l-122.43316,0l0,-62.52857l39.17861,0l0,-4.80989z" fill="#000000" id="svg_53"/>
     <path d="m259.18079,249.15469l0,-4.80989l39.17861,0l0,4.80989l-39.17861,0z" fill="#d3d3d3" id="svg_52"/>
     <path fill-rule="evenodd" clip-rule="evenodd" d="m58.3904,125.36646l48.97327,0l0,2.40494l-48.97327,0l0,-2.40494zm-2.44866,4.80989l2.44866,0l0,-2.40494l-2.44866,0l0,2.40494zm0,9.61978l0,-9.61978l-2.44866,0l0,9.61978l2.44866,0zm2.44866,2.40494l0,-2.40494l-2.44866,0l0,2.40494l2.44866,0zm48.97327,0l-48.97327,0l0,2.40494l48.97327,0l0,-2.40494zm2.44866,-2.40494l-2.44866,0l0,2.40494l2.44866,0l0,-2.40494zm0,-9.61978l-2.44866,0l0,-2.40494l2.44866,0l0,2.40494zm0,0l0,9.61978l2.44866,0l0,-9.61978l-2.44866,0z" fill="#000000" id="svg_51"/>
     <path fill-rule="evenodd" clip-rule="evenodd" d="m450.17653,126.5025l48.97327,0l0,2.40494l-48.97327,0l0,-2.40494zm-2.44866,4.80989l2.44866,0l0,-2.40494l-2.44866,0l0,2.40494zm0,9.61978l0,-9.61978l-2.44866,0l0,9.61978l2.44866,0zm2.44866,2.40494l0,-2.40494l-2.44866,0l0,2.40494l2.44866,0zm48.97327,0l-48.97327,0l0,2.40494l48.97327,0l0,-2.40494zm2.44866,-2.40494l-2.44866,0l0,2.40494l2.44866,0l0,-2.40494zm0,-9.61978l-2.44866,0l0,-2.40494l2.44866,0l0,2.40494zm0,0l0,9.61978l2.44866,0l0,-9.61978l-2.44866,0z" fill="#000000" id="svg_50"/>
     <path fill-rule="evenodd" clip-rule="evenodd" d="m156.33694,299.09051l9.79465,0l0,2.40494l-9.79465,0l0,-2.40494zm-2.44866,4.80989l2.44866,0l0,-2.40494l-2.44866,0l0,2.40494zm0,67.33846l0,-67.33846l-2.44866,0l0,67.33846l2.44866,0zm2.44866,2.40494l0,-2.40494l-2.44866,0l0,2.40494l2.44866,0zm9.79465,0l-9.79465,0l0,2.40494l9.79465,0l0,-2.40494zm2.44866,-2.40494l-2.44866,0l0,2.40494l2.44866,0l0,-2.40494zm0,-67.33846l-2.44866,0l0,-2.40494l2.44866,0l0,2.40494zm0,0l0,67.33846l2.44866,0l0,-67.33846l-2.44866,0z" fill="#000000" id="svg_49"/>
     <path fill-rule="evenodd" clip-rule="evenodd" d="m391.40861,299.09051l9.79465,0l0,2.40494l-9.79465,0l0,-2.40494zm-2.44866,4.80989l2.44866,0l0,-2.40494l-2.44866,0l0,2.40494zm0,67.33846l0,-67.33846l-2.44866,0l0,67.33846l2.44866,0zm2.44866,2.40494l0,-2.40494l-2.44866,0l0,2.40494l2.44866,0zm9.79465,0l-9.79465,0l0,2.40494l9.79465,0l0,-2.40494zm2.44866,-2.40494l-2.44866,0l0,2.40494l2.44866,0l0,-2.40494zm0,-67.33846l-2.44866,0l0,-2.40494l2.44866,0l0,2.40494zm0,0l0,67.33846l2.44866,0l0,-67.33846l-2.44866,0z" fill="#000000" id="svg_48"/>
     <path fill-rule="evenodd" clip-rule="evenodd" d="m406.10059,419.33776l0,9.61978l-2.44866,0l0,-9.61978l2.44866,0zm-4.89733,-2.40494l0,2.40494l2.44866,0l0,-2.40494l-2.44866,0zm-68.56257,0l68.56257,0l0,-2.40494l-68.56257,0l0,2.40494zm-2.44866,2.40494l2.44866,0l0,-2.40494l-2.44866,0l0,2.40494zm0,9.61978l0,-9.61978l-2.44866,0l0,9.61978l2.44866,0zm2.44866,2.40494l0,-2.40494l-2.44866,0l0,2.40494l2.44866,0zm68.56257,0l0,-2.40494l2.44866,0l0,2.40494l-2.44866,0zm0,0l-68.56257,0l0,2.40494l68.56257,0l0,-2.40494z" fill="#000000" id="svg_47"/>
     <path fill-rule="evenodd" clip-rule="evenodd" d="m229.79683,419.90578l0,9.61978l-2.44866,0l0,-9.61978l2.44866,0zm-4.89733,-2.40494l0,2.40494l2.44866,0l0,-2.40494l-2.44866,0zm-68.56257,0l68.56257,0l0,-2.40494l-68.56257,0l0,2.40494zm-2.44866,2.40494l2.44866,0l0,-2.40494l-2.44866,0l0,2.40494zm0,9.61978l0,-9.61978l-2.44866,0l0,9.61978l2.44866,0zm2.44866,2.40494l0,-2.40494l-2.44866,0l0,2.40494l2.44866,0zm68.56257,0l0,-2.40494l2.44866,0l0,2.40494l-2.44866,0zm0,0l-68.56257,0l0,2.40494l68.56257,0l0,-2.40494z" fill="#000000" id="svg_46"/>
     <path fill-rule="evenodd" clip-rule="evenodd" d="m58.3904,48.97624l48.97327,0l0,2.40494l-48.97327,0l0,-2.40494zm-2.44866,4.80989l2.44866,0l0,-2.40494l-2.44866,0l0,2.40494zm0,28.85934l0,-28.85934l-2.44866,0l0,28.85934l2.44866,0zm2.44866,2.40494l0,-2.40494l-2.44866,0l0,2.40494l2.44866,0zm48.97327,0l-48.97327,0l0,2.40494l48.97327,0l0,-2.40494zm2.44866,-2.40494l-2.44866,0l0,2.40494l2.44866,0l0,-2.40494zm0,-28.85934l-2.44866,0l0,-2.40494l2.44866,0l0,2.40494zm0,0l0,28.85934l2.44866,0l0,-28.85934l-2.44866,0z" fill="#000000" id="svg_45"/>
     <path fill-rule="evenodd" clip-rule="evenodd" d="m450.17653,49.54426l48.97327,0l0,2.40494l-48.97327,0l0,-2.40494zm-2.44866,4.80989l2.44866,0l0,-2.40494l-2.44866,0l0,2.40494zm0,28.85934l0,-28.85934l-2.44866,0l0,28.85934l2.44866,0zm2.44866,2.40494l0,-2.40494l-2.44866,0l0,2.40494l2.44866,0zm48.97327,0l-48.97327,0l0,2.40494l48.97327,0l0,-2.40494zm2.44866,-2.40494l-2.44866,0l0,2.40494l2.44866,0l0,-2.40494zm0,-28.85934l-2.44866,0l0,-2.40494l2.44866,0l0,2.40494zm0,0l0,28.85934l2.44866,0l0,-28.85934l-2.44866,0z" fill="#000000" id="svg_44"/>
     <path fill-rule="evenodd" clip-rule="evenodd" d="m156.33694,48.97624l68.56257,0l0,2.40494l-68.56257,0l0,-2.40494zm-2.44866,4.80989l2.44866,0l0,-2.40494l-2.44866,0l0,2.40494zm0,28.85934l0,-28.85934l-2.44866,0l0,28.85934l2.44866,0zm2.44866,2.40494l0,-2.40494l-2.44866,0l0,2.40494l2.44866,0zm68.56257,0l-68.56257,0l0,2.40494l68.56257,0l0,-2.40494zm2.44866,-2.40494l-2.44866,0l0,2.40494l2.44866,0l0,-2.40494zm0,-28.85934l-2.44866,0l0,-2.40494l2.44866,0l0,2.40494zm0,0l0,28.85934l2.44866,0l0,-28.85934l-2.44866,0z" fill="#000000" id="svg_43"/>
     <path fill-rule="evenodd" clip-rule="evenodd" d="m332.64069,48.97624l68.56257,0l0,2.40494l-68.56257,0l0,-2.40494zm-2.44866,4.80989l2.44866,0l0,-2.40494l-2.44866,0l0,2.40494zm0,28.85934l0,-28.85934l-2.44866,0l0,28.85934l2.44866,0zm2.44866,2.40494l0,-2.40494l-2.44866,0l0,2.40494l2.44866,0zm68.56257,0l-68.56257,0l0,2.40494l68.56257,0l0,-2.40494zm2.44866,-2.40494l-2.44866,0l0,2.40494l2.44866,0l0,-2.40494zm0,-28.85934l-2.44866,0l0,-2.40494l2.44866,0l0,2.40494zm0,0l0,28.85934l2.44866,0l0,-28.85934l-2.44866,0z" fill="#000000" id="svg_42"/>
     <path fill-rule="evenodd" clip-rule="evenodd" d="m156.33694,126.5025l9.79465,0l0,2.40494l-9.79465,0l0,-2.40494zm-2.44866,4.80989l2.44866,0l0,-2.40494l-2.44866,0l0,2.40494zm0,125.05714l0,-125.05714l-2.44866,0l0,125.05714l2.44866,0zm2.44866,2.40494l0,-2.40494l-2.44866,0l0,2.40494l2.44866,0zm9.79465,0l-9.79465,0l0,2.40494l9.79465,0l0,-2.40494zm2.44866,-2.40494l-2.44866,0l0,2.40494l2.44866,0l0,-2.40494zm2.44866,-50.50384l-2.44866,0l0,50.50384l2.44866,0l0,-50.50384zm2.44866,-2.40494l-2.44866,0l0,2.40494l2.44866,0l0,-2.40494zm51.42193,-2.40494l-51.42193,0l0,2.40494l51.42193,0l0,-2.40494zm2.44866,-2.40494l-2.44866,0l0,2.40494l2.44866,0l0,-2.40494zm0,-9.61978l0,9.61978l2.44866,0l0,-9.61978l-2.44866,0zm-2.44866,-2.40494l0,2.40494l2.44866,0l0,-2.40494l-2.44866,0zm-51.42193,-2.40494l0,2.40494l51.42193,0l0,-2.40494l-51.42193,0zm-2.44866,-2.40494l0,2.40494l2.44866,0l0,-2.40494l-2.44866,0zm-2.44866,-50.50384l-2.44866,0l0,-2.40494l2.44866,0l0,2.40494zm0,0l0,50.50384l2.44866,0l0,-50.50384l-2.44866,0z" fill="#000000" id="svg_41"/>
     <path fill-rule="evenodd" clip-rule="evenodd" d="m347.33267,130.74437l0,9.61978l-2.44866,0l0,-9.61978l2.44866,0zm-4.89733,-2.40494l0,2.40494l2.44866,0l0,-2.40494l-2.44866,0zm-127.33049,0l127.33049,0l0,-2.40494l-127.33049,0l0,2.40494zm-2.44866,2.40494l2.44866,0l0,-2.40494l-2.44866,0l0,2.40494zm0,9.61978l0,-9.61978l-2.44866,0l0,9.61978l2.44866,0zm2.44866,2.40494l0,-2.40494l-2.44866,0l0,2.40494l2.44866,0zm51.42193,2.40494l0,-2.40494l-51.42193,0l0,2.40494l51.42193,0zm2.44866,2.40494l0,-2.40494l-2.44866,0l0,2.40494l2.44866,0zm2.44866,50.50384l0,-50.50384l-2.44866,0l0,50.50384l2.44866,0zm2.44866,2.40494l0,-2.40494l-2.44866,0l0,2.40494l2.44866,0zm9.79465,0l-9.79465,0l0,2.40494l9.79465,0l0,-2.40494zm2.44866,-2.40494l-2.44866,0l0,2.40494l2.44866,0l0,-2.40494zm2.44866,-50.50384l-2.44866,0l0,50.50384l2.44866,0l0,-50.50384zm2.44866,-2.40494l-2.44866,0l0,2.40494l2.44866,0l0,-2.40494zm51.42193,-2.40494l0,-2.40494l2.44866,0l0,2.40494l-2.44866,0zm0,0l-51.42193,0l0,2.40494l51.42193,0l0,-2.40494z" fill="#000000" id="svg_40"/>
     <path fill-rule="evenodd" clip-rule="evenodd" d="m401.20326,260.6114l-9.79465,0l0,-2.40494l9.79465,0l0,2.40494zm2.44866,-4.80989l-2.44866,0l0,2.40494l2.44866,0l0,-2.40494zm0,-125.05714l0,125.05714l2.44866,0l0,-125.05714l-2.44866,0zm-2.44866,-2.40494l0,2.40494l2.44866,0l0,-2.40494l-2.44866,0zm-9.79465,0l9.79465,0l0,-2.40494l-9.79465,0l0,2.40494zm-2.44866,2.40494l2.44866,0l0,-2.40494l-2.44866,0l0,2.40494zm-2.44866,50.50384l2.44866,0l0,-50.50384l-2.44866,0l0,50.50384zm-2.44866,2.40494l2.44866,0l0,-2.40494l-2.44866,0l0,2.40494zm-51.42193,2.40494l51.42193,0l0,-2.40494l-51.42193,0l0,2.40494zm-2.44866,2.40494l2.44866,0l0,-2.40494l-2.44866,0l0,2.40494zm0,9.61978l0,-9.61978l-2.44866,0l0,9.61978l2.44866,0zm2.44866,2.40494l0,-2.40494l-2.44866,0l0,2.40494l2.44866,0zm51.42193,2.40494l0,-2.40494l-51.42193,0l0,2.40494l51.42193,0zm2.44866,2.40494l0,-2.40494l-2.44866,0l0,2.40494l2.44866,0zm2.44866,50.50384l2.44866,0l0,2.40494l-2.44866,0l0,-2.40494zm0,0l0,-50.50384l-2.44866,0l0,50.50384l2.44866,0z" fill="#000000" id="svg_39"/>
     <path fill-rule="evenodd" clip-rule="evenodd" d="m347.33267,361.61908l0,9.61978l-2.44866,0l0,-9.61978l2.44866,0zm-4.89733,-2.40494l0,2.40494l2.44866,0l0,-2.40494l-2.44866,0zm-127.33049,0l127.33049,0l0,-2.40494l-127.33049,0l0,2.40494zm-2.44866,2.40494l2.44866,0l0,-2.40494l-2.44866,0l0,2.40494zm0,9.61978l0,-9.61978l-2.44866,0l0,9.61978l2.44866,0zm2.44866,2.40494l0,-2.40494l-2.44866,0l0,2.40494l2.44866,0zm51.42193,2.40494l0,-2.40494l-51.42193,0l0,2.40494l51.42193,0zm2.44866,2.40494l0,-2.40494l-2.44866,0l0,2.40494l2.44866,0zm2.44866,50.50384l0,-50.50384l-2.44866,0l0,50.50384l2.44866,0zm2.44866,2.40494l0,-2.40494l-2.44866,0l0,2.40494l2.44866,0zm9.79465,0l-9.79465,0l0,2.40494l9.79465,0l0,-2.40494zm2.44866,-2.40494l-2.44866,0l0,2.40494l2.44866,0l0,-2.40494zm2.44866,-50.50384l-2.44866,0l0,50.50384l2.44866,0l0,-50.50384zm2.44866,-2.40494l-2.44866,0l0,2.40494l2.44866,0l0,-2.40494zm51.42193,-2.40494l0,-2.40494l2.44866,0l0,2.40494l-2.44866,0zm0,0l-51.42193,0l0,2.40494l51.42193,0l0,-2.40494z" fill="#000000" id="svg_38"/>
     <path fill-rule="evenodd" clip-rule="evenodd" d="m347.33267,477.62446l0,9.61978l-2.44866,0l0,-9.61978l2.44866,0zm-4.89733,-2.40494l0,2.40494l2.44866,0l0,-2.40494l-2.44866,0zm-127.33049,0l127.33049,0l0,-2.40494l-127.33049,0l0,2.40494zm-2.44866,2.40494l2.44866,0l0,-2.40494l-2.44866,0l0,2.40494zm0,9.61978l0,-9.61978l-2.44866,0l0,9.61978l2.44866,0zm2.44866,2.40494l0,-2.40494l-2.44866,0l0,2.40494l2.44866,0zm51.42193,2.40494l0,-2.40494l-51.42193,0l0,2.40494l51.42193,0zm2.44866,2.40494l0,-2.40494l-2.44866,0l0,2.40494l2.44866,0zm2.44866,50.50384l0,-50.50384l-2.44866,0l0,50.50384l2.44866,0zm2.44866,2.40494l0,-2.40494l-2.44866,0l0,2.40494l2.44866,0zm9.79465,0l-9.79465,0l0,2.40494l9.79465,0l0,-2.40494zm2.44866,-2.40494l-2.44866,0l0,2.40494l2.44866,0l0,-2.40494zm2.44866,-50.50384l-2.44866,0l0,50.50384l2.44866,0l0,-50.50384zm2.44866,-2.40494l-2.44866,0l0,2.40494l2.44866,0l0,-2.40494zm51.42193,-2.40494l0,-2.40494l2.44866,0l0,2.40494l-2.44866,0zm0,0l-51.42193,0l0,2.40494l51.42193,0l0,-2.40494z" fill="#000000" id="svg_37"/>
     <path fill-rule="evenodd" clip-rule="evenodd" d="m58.3904,415.09589l48.97327,0l0,2.40494l-48.97327,0l0,-2.40494zm-2.44866,4.80989l2.44866,0l0,-2.40494l-2.44866,0l0,2.40494zm0,9.61978l0,-9.61978l-2.44866,0l0,9.61978l2.44866,0zm2.44866,2.40494l0,-2.40494l-2.44866,0l0,2.40494l2.44866,0zm31.83262,2.40494l0,-2.40494l-31.83262,0l0,2.40494l31.83262,0zm2.44866,2.40494l0,-2.40494l-2.44866,0l0,2.40494l2.44866,0zm2.44866,50.50384l0,-50.50384l-2.44866,0l0,50.50384l2.44866,0zm2.44866,2.40494l0,-2.40494l-2.44866,0l0,2.40494l2.44866,0zm9.79465,0l-9.79465,0l0,2.40494l9.79465,0l0,-2.40494zm2.44866,-2.40494l-2.44866,0l0,2.40494l2.44866,0l0,-2.40494zm0,-67.33846l-2.44866,0l0,-2.40494l2.44866,0l0,2.40494zm0,0l0,67.33846l2.44866,0l0,-67.33846l-2.44866,0z" fill="#000000" id="svg_36"/>
     <path fill-rule="evenodd" clip-rule="evenodd" d="m499.14979,414.52787l-48.97327,0l0,2.40494l48.97327,0l0,-2.40494zm2.44866,4.80989l-2.44866,0l0,-2.40494l2.44866,0l0,2.40494zm0,9.61978l0,-9.61978l2.44866,0l0,9.61978l-2.44866,0zm-2.44866,2.40494l0,-2.40494l2.44866,0l0,2.40494l-2.44866,0zm-31.83262,2.40494l0,-2.40494l31.83262,0l0,2.40494l-31.83262,0zm-2.44866,2.40494l0,-2.40494l2.44866,0l0,2.40494l-2.44866,0zm-2.44866,50.50384l0,-50.50384l2.44866,0l0,50.50384l-2.44866,0zm-2.44866,2.40494l0,-2.40494l2.44866,0l0,2.40494l-2.44866,0zm-9.79465,0l9.79465,0l0,2.40494l-9.79465,0l0,-2.40494zm-2.44866,-2.40494l2.44866,0l0,2.40494l-2.44866,0l0,-2.40494zm0,-67.33846l2.44866,0l0,-2.40494l-2.44866,0l0,2.40494zm0,0l0,67.33846l-2.44866,0l0,-67.33846l2.44866,0z" fill="#000000" id="svg_35"/>
     <path fill-rule="evenodd" clip-rule="evenodd" d="m156.33694,472.81457l9.79465,0l0,2.40494l-9.79465,0l0,-2.40494zm-2.44866,4.80989l2.44866,0l0,-2.40494l-2.44866,0l0,2.40494zm-2.44866,50.50384l2.44866,0l0,-50.50384l-2.44866,0l0,50.50384zm-2.44866,2.40494l2.44866,0l0,-2.40494l-2.44866,0l0,2.40494zm-90.60054,2.40494l90.60054,0l0,-2.40494l-90.60054,0l0,2.40494zm-2.44866,2.40494l2.44866,0l0,-2.40494l-2.44866,0l0,2.40494zm0,9.61978l0,-9.61978l-2.44866,0l0,9.61978l2.44866,0zm2.44866,2.40494l0,-2.40494l-2.44866,0l0,2.40494l2.44866,0zm166.5091,0l-166.5091,0l0,2.40494l166.5091,0l0,-2.40494zm2.44866,-2.40494l-2.44866,0l0,2.40494l2.44866,0l0,-2.40494zm0,-9.61978l0,9.61978l2.44866,0l0,-9.61978l-2.44866,0zm-2.44866,-2.40494l0,2.40494l2.44866,0l0,-2.40494l-2.44866,0zm-51.42193,-2.40494l0,2.40494l51.42193,0l0,-2.40494l-51.42193,0zm-2.44866,-2.40494l0,2.40494l2.44866,0l0,-2.40494l-2.44866,0zm-2.44866,-50.50384l-2.44866,0l0,-2.40494l2.44866,0l0,2.40494zm0,0l0,50.50384l2.44866,0l0,-50.50384l-2.44866,0z" fill="#000000" id="svg_34"/>
     <path fill-rule="evenodd" clip-rule="evenodd" d="m401.20326,472.81457l-9.79465,0l0,2.40494l9.79465,0l0,-2.40494zm2.44866,4.80989l-2.44866,0l0,-2.40494l2.44866,0l0,2.40494zm2.44866,50.50384l-2.44866,0l0,-50.50384l2.44866,0l0,50.50384zm2.44866,2.40494l-2.44866,0l0,-2.40494l2.44866,0l0,2.40494zm90.60054,2.40494l-90.60054,0l0,-2.40494l90.60054,0l0,2.40494zm2.44866,2.40494l-2.44866,0l0,-2.40494l2.44866,0l0,2.40494zm0,9.61978l0,-9.61978l2.44866,0l0,9.61978l-2.44866,0zm-2.44866,2.40494l0,-2.40494l2.44866,0l0,2.40494l-2.44866,0zm-166.5091,0l166.5091,0l0,2.40494l-166.5091,0l0,-2.40494zm-2.44866,-2.40494l2.44866,0l0,2.40494l-2.44866,0l0,-2.40494zm0,-9.61978l0,9.61978l-2.44866,0l0,-9.61978l2.44866,0zm2.44866,-2.40494l0,2.40494l-2.44866,0l0,-2.40494l2.44866,0zm51.42193,-2.40494l0,2.40494l-51.42193,0l0,-2.40494l51.42193,0zm2.44866,-2.40494l0,2.40494l-2.44866,0l0,-2.40494l2.44866,0zm2.44866,-50.50384l2.44866,0l0,-2.40494l-2.44866,0l0,2.40494zm0,0l0,50.50384l-2.44866,0l0,-50.50384l2.44866,0z" fill="#000000" id="svg_33"/>
     <path fill-rule="evenodd" clip-rule="evenodd" d="m4.51981,299.65854l102.84386,0l0,2.40494l-102.84386,0l0,-2.40494zm0,7.21483l0,2.40494l97.94653,0l0,57.71868l-88.15188,0l0,2.40494l-4.89733,0l0,2.40494l-2.44866,0l0,4.80989l-2.44866,0l0,211.63515l2.44866,0l0,4.80989l2.44866,0l0,2.40494l4.89733,0l0,2.40494l528.91126,0l0,-2.40494l4.89733,0l0,-2.40494l2.44866,0l0,-4.80989l2.44866,0l0,-211.63515l-2.44866,0l0,-4.80989l-2.44866,0l0,-2.40494l-4.89733,0l0,-2.40494l-88.15188,0l0,-57.71868l97.94653,0l0,-2.40494l-97.94653,0l0,2.40494l-2.44866,0l0,57.71868l2.44866,0l0,2.40494l88.15188,0l0,2.40494l4.89733,0l0,4.80989l2.44866,0l0,211.63515l-2.44866,0l0,4.80989l-4.89733,0l0,2.40494l-528.91126,0l0,-2.40494l-4.89733,0l0,-4.80989l-2.44866,0l0,-211.63515l2.44866,0l0,-4.80989l4.89733,0l0,-2.40494l88.15188,0l0,-2.40494l2.44866,0l0,-57.71868l-2.44866,0l0,-2.40494l-97.94653,0zm548.50057,-4.80989l0,-2.40494l-102.84386,0l0,2.40494l-2.44866,0l0,2.40494l-2.44866,0l0,67.33846l2.44866,0l0,2.40494l2.44866,0l0,2.40494l90.60054,0l0,2.40494l2.44866,0l0,91.38791l-2.44866,0l0,2.40494l-31.83262,0l0,2.40494l-2.44866,0l0,2.40494l-2.44866,0l0,9.61978l2.44866,0l0,2.40494l2.44866,0l0,2.40494l31.83262,0l0,2.40494l2.44866,0l0,91.38791l-2.44866,0l0,2.40494l-524.01394,0l0,-2.40494l-2.44866,0l0,-91.38791l2.44866,0l0,-2.40494l31.83262,0l0,-2.40494l2.44866,0l0,-2.40494l2.44866,0l0,-9.61978l-2.44866,0l0,-2.40494l-2.44866,0l0,-2.40494l-31.83262,0l0,-2.40494l-2.44866,0l0,-91.38791l2.44866,0l0,-2.40494l90.60054,0l0,-2.40494l2.44866,0l0,-2.40494l2.44866,0l0,-67.33846l-2.44866,0l0,-2.40494l-2.44866,0l0,2.40494l2.44866,0l0,67.33846l-2.44866,0l0,2.40494l-90.60054,0l0,2.40494l-2.44866,0l0,2.40494l-2.44866,0l0,91.38791l2.44866,0l0,2.40494l2.44866,0l0,2.40494l31.83262,0l0,2.40494l2.44866,0l0,9.61978l-2.44866,0l0,2.40494l-31.83262,0l0,2.40494l-2.44866,0l0,2.40494l-2.44866,0l0,91.38791l2.44866,0l0,2.40494l2.44866,0l0,2.40494l524.01394,0l0,-2.40494l2.44866,0l0,-2.40494l2.44866,0l0,-91.38791l-2.44866,0l0,-2.40494l-2.44866,0l0,-2.40494l-31.83262,0l0,-2.40494l-2.44866,0l0,-9.61978l2.44866,0l0,-2.40494l31.83262,0l0,-2.40494l2.44866,0l0,-2.40494l2.44866,0l0,-91.38791l-2.44866,0l0,-2.40494l-2.44866,0l0,-2.40494l-90.60054,0l0,-2.40494l-2.44866,0l0,-67.33846l2.44866,0l0,-2.40494l102.84386,0z" fill="#000000" id="svg_32"/>
     <path fill-rule="evenodd" clip-rule="evenodd" d="m4.51981,261.17942l102.84386,0l0,-2.40494l2.44866,0l0,-2.40494l2.44866,0l0,-67.33846l-2.44866,0l0,-2.40494l-2.44866,0l0,-2.40494l-90.60054,0l0,-2.40494l-2.44866,0l0,-168.34615l2.44866,0l0,-2.40494l249.76365,0l0,2.40494l2.44866,0l0,69.7434l2.44866,0l0,2.40494l2.44866,0l0,2.40494l9.79465,0l0,-2.40494l2.44866,0l0,-2.40494l2.44866,0l0,-69.7434l2.44866,0l0,-2.40494l249.76365,0l0,2.40494l2.44866,0l0,168.34615l-2.44866,0l0,2.40494l-90.60054,0l0,2.40494l-2.44866,0l0,2.40494l-2.44866,0l0,67.33846l2.44866,0l0,2.40494l2.44866,0l0,2.40494l102.84386,0l0,-2.40494l-102.84386,0l0,-2.40494l-2.44866,0l0,-67.33846l2.44866,0l0,-2.40494l90.60054,0l0,-2.40494l2.44866,0l0,-2.40494l2.44866,0l0,-168.34615l-2.44866,0l0,-2.40494l-2.44866,0l0,-2.40494l-249.76365,0l0,2.40494l-2.44866,0l0,2.40494l-2.44866,0l0,69.7434l-2.44866,0l0,2.40494l-9.79465,0l0,-2.40494l-2.44866,0l0,-69.7434l-2.44866,0l0,-2.40494l-2.44866,0l0,-2.40494l-249.76365,0l0,2.40494l-2.44866,0l0,2.40494l-2.44866,0l0,168.34615l2.44866,0l0,2.40494l2.44866,0l0,2.40494l90.60054,0l0,2.40494l2.44866,0l0,67.33846l-2.44866,0l0,2.40494l-102.84386,0l0,2.40494zm0,-7.21483l97.94653,0l0,-2.40494l2.44866,0l0,-57.71868l-2.44866,0l0,-2.40494l-88.15188,0l0,-2.40494l-4.89733,0l0,-4.80989l-2.44866,0l0,-173.15604l2.44866,0l0,-4.80989l4.89733,0l0,-2.40494l528.91126,0l0,2.40494l4.89733,0l0,4.80989l2.44866,0l0,173.15604l-2.44866,0l0,4.80989l-4.89733,0l0,2.40494l-88.15188,0l0,2.40494l-2.44866,0l0,57.71868l2.44866,0l0,2.40494l97.94653,0l0,-2.40494l-97.94653,0l0,-57.71868l88.15188,0l0,-2.40494l4.89733,0l0,-2.40494l2.44866,0l0,-4.80989l2.44866,0l0,-173.15604l-2.44866,0l0,-4.80989l-2.44866,0l0,-2.40494l-4.89733,0l0,-2.40494l-528.91126,0l0,2.40494l-4.89733,0l0,2.40494l-2.44866,0l0,4.80989l-2.44866,0l0,173.15604l2.44866,0l0,4.80989l2.44866,0l0,2.40494l4.89733,0l0,2.40494l88.15188,0l0,57.71868l-97.94653,0l0,2.40494z" fill="#000000" id="svg_31"/>
    </g>
   </g>
  </g>
 </g>
</svg>
